<svg width="64" height="64" viewBox="0 0 64 64" fill="none" xmlns="http://www.w3.org/2000/svg">
<g clip-path="url(#clip0_2337_107)">
<path d="M3.23084 31.9998L6.85773 31.3957C4.62788 41.0299 3.41558 50.8717 3.24076 60.759C13.105 60.834 22.943 59.735 32.5476 57.4853L32 60.769H33.62C35.8289 60.7691 38.0198 60.3719 40.088 59.5964C43.2338 58.4166 45.997 56.3991 48.0789 53.7622L53.2157 47.2544C57.9022 42.3876 60.4919 35.8762 60.4281 29.1201C60.3643 22.364 57.6521 15.9027 52.8746 11.1252C48.0971 6.34766 41.6358 3.63548 34.8797 3.57171C28.1236 3.50793 21.6122 6.09764 16.7454 10.7841L9.88345 16.8474C7.46991 18.9789 5.61617 21.6699 4.48477 24.6845C3.65498 26.8968 3.23023 29.2403 3.23084 31.603V31.9998Z" fill="#188D91"/>
<path d="M7.34167 56.7554C7.712 48.5346 8.83909 40.3653 10.7087 32.3513L12.1679 26.4854L7.82381 27.2095C7.93491 26.8299 8.06024 26.4536 8.19979 26.0806C9.10461 23.6732 10.5844 21.5235 12.5102 19.8189L19.4644 13.6752L19.5517 13.5879C23.6702 9.62429 29.1794 7.43465 34.8951 7.48953C40.6108 7.54442 46.0768 9.83944 50.1185 13.8814C54.1602 17.9233 56.4548 23.3895 56.5094 29.1052C56.5639 34.8209 54.3739 40.3299 50.41 44.4482L50.2454 44.6129L44.9637 51.3032C43.33 53.372 41.1621 54.9551 38.6941 55.8815C38.0572 56.1197 37.4045 56.3133 36.7407 56.4608L37.459 52.1554L31.5772 53.6434C23.6285 55.5184 15.5062 56.5613 7.34167 56.7554Z" fill="#2BADB1"/>
<path d="M34.9761 50.8489C47.0296 50.8489 56.8009 41.0776 56.8009 29.0241C56.8009 16.9705 47.0296 7.19922 34.9761 7.19922C22.9226 7.19922 13.1512 16.9705 13.1512 29.0241C13.1512 41.0776 22.9226 50.8489 34.9761 50.8489Z" fill="#E9F1F2"/>
<path d="M53.1502 41.1172C51.2959 43.9 48.8269 46.2195 45.9338 47.8966C43.0407 49.5737 39.8008 50.5636 36.4644 50.7898C33.128 51.016 29.7843 50.4725 26.6913 49.2012C23.5983 47.9299 20.8388 45.9649 18.6258 43.4578C16.4128 40.9507 14.8055 37.9686 13.9281 34.7417C13.0506 31.5148 12.9264 28.1294 13.565 24.8469C14.2037 21.5644 15.5881 18.4725 17.6114 15.81C19.6347 13.1475 22.2427 10.9855 25.2343 9.49097C22.5716 13.4958 21.3059 18.2677 21.6336 23.0657C21.9614 27.8637 23.8643 32.4192 27.0468 36.0247C30.2293 39.6302 34.5133 42.0839 39.2335 43.0048C43.9537 43.9256 48.8459 43.2621 53.1502 41.1172Z" fill="#D0D8DA"/>
<path d="M34.48 12.3965H35.472V19.0818H34.48V12.3965Z" fill="#656B76"/>
<path d="M19.9095 23.6995L20.2161 22.756L26.5739 24.8218L26.2673 25.7652L19.9095 23.6995Z" fill="#656B76"/>
<path d="M43.3718 24.833L49.7296 22.7672L50.0361 23.7107L43.6784 25.7764L43.3718 24.833Z" fill="#656B76"/>
<path d="M39.8678 35.6311L40.6703 35.0479L44.6008 40.4557L43.7983 41.0389L39.8678 35.6311Z" fill="#656B76"/>
<path d="M25.3644 40.4917L29.2949 35.0839L30.0974 35.6671L26.1668 41.075L25.3644 40.4917Z" fill="#656B76"/>
<path d="M34.976 18.5859L25.9961 25.1106L29.4266 35.6669H40.5255L43.956 25.1106L34.976 18.5859Z" fill="#656B76"/>
<path d="M41.4471 8.19094L34.9761 12.8922L28.505 8.19094C32.7187 6.87483 37.2335 6.87483 41.4471 8.19094Z" fill="#656B76"/>
<path d="M20.534 23.387L13.1611 28.744C13.2111 23.8859 14.8955 19.1861 17.9428 15.4021L20.534 23.387Z" fill="#2D2D2D"/>
<path d="M56.7909 28.7391L49.4181 23.3871L52.0093 15.3972C55.0566 19.1812 56.7409 23.881 56.7909 28.7391Z" fill="#656B76"/>
<path d="M53.6312 40.354C50.7363 45.1223 46.1254 48.6011 40.7456 50.076L43.8953 40.354H53.6312Z" fill="#656B76"/>
<path d="M29.2064 50.0709C23.8266 48.596 19.2157 45.1172 16.3208 40.3489H26.0567L29.2064 50.0709Z" fill="#2D2D2D"/>
<path d="M53.1501 41.1167C50.2298 45.4981 45.8267 48.6789 40.7496 50.0748L42.9123 43.3984C43.071 43.4083 43.2397 43.4083 43.4083 43.4083C46.7899 43.4149 50.1261 42.6301 53.1501 41.1167Z" fill="#2D2D2D"/>
<path d="M21.7521 24.3017L19.9069 23.6966L20.2144 22.7542L21.6528 23.2204C21.6727 23.5875 21.7025 23.9446 21.7521 24.3017Z" fill="#2D2D2D"/>
<path d="M28.6369 37.6546L26.1667 41.0474L25.3632 40.472L27.9127 36.9602C28.1508 37.1983 28.3988 37.4265 28.6369 37.6546Z" fill="#2D2D2D"/>
<path d="M7.64732 52.809C7.61923 52.8105 7.59109 52.8105 7.563 52.809C7.30099 52.7868 7.05853 52.6614 6.88888 52.4606C6.71923 52.2597 6.63628 51.9996 6.65826 51.7376C7.11157 46.213 7.90505 40.7215 9.03419 35.2946C9.08918 35.0372 9.24414 34.8123 9.46497 34.6692C9.6858 34.5262 9.95442 34.4767 10.2117 34.5317C10.4691 34.5867 10.694 34.7416 10.8371 34.9625C10.9801 35.1833 11.0296 35.4519 10.9746 35.7092C9.86293 41.0531 9.0817 46.4603 8.63539 51.9003C8.61451 52.148 8.50138 52.3789 8.3184 52.5471C8.13542 52.7154 7.89592 52.8089 7.64732 52.809Z" fill="#33EEF4"/>
<path d="M12.3248 57.5263C12.1946 57.5305 12.0647 57.5089 11.9428 57.4629C11.8208 57.4169 11.7091 57.3474 11.6141 57.2582C11.519 57.169 11.4424 57.062 11.3887 56.9432C11.335 56.8245 11.3052 56.6963 11.301 56.566C11.2969 56.4357 11.3184 56.3059 11.3644 56.184C11.4104 56.062 11.48 55.9503 11.5692 55.8552C11.6583 55.7602 11.7654 55.6836 11.8841 55.6299C12.0029 55.5762 12.1311 55.5464 12.2613 55.5422C17.9012 55.1885 23.5058 54.4059 29.0268 53.201C29.2818 53.1476 29.5476 53.1966 29.7668 53.3376C29.9859 53.4785 30.1408 53.7 30.198 53.9542C30.2552 54.2084 30.2101 54.4749 30.0725 54.6961C29.9348 54.9173 29.7156 55.0755 29.4623 55.1365C23.8391 56.3639 18.1306 57.1615 12.3863 57.5223C12.3685 57.5263 12.3467 57.5263 12.3248 57.5263Z" fill="#33EEF4"/>
<path d="M11.1671 50.8489C11.0099 50.8489 10.8549 50.8116 10.715 50.74C10.5751 50.6684 10.4541 50.5646 10.3622 50.4371C10.2703 50.3096 10.2099 50.162 10.1862 50.0067C10.1624 49.8513 10.176 49.6925 10.2256 49.5433L12.2097 43.5911C12.2929 43.3411 12.4719 43.1345 12.7074 43.0165C12.9429 42.8986 13.2157 42.879 13.4656 42.9621C13.7156 43.0453 13.9223 43.2243 14.0402 43.4598C14.1582 43.6954 14.1777 43.9681 14.0946 44.2181L12.1105 50.1703C12.0446 50.3682 11.9179 50.5404 11.7486 50.6622C11.5792 50.784 11.3757 50.8493 11.1671 50.8489Z" fill="#33EEF4"/>
<path d="M14.1433 53.825C13.9076 53.8252 13.6795 53.7414 13.4999 53.5887C13.3204 53.4361 13.201 53.2244 13.1633 52.9918C13.1256 52.7591 13.1719 52.5206 13.2941 52.319C13.4162 52.1174 13.6061 51.9658 13.8298 51.8915L19.782 49.9075C20.032 49.8243 20.3047 49.8439 20.5402 49.9618C20.7758 50.0798 20.9548 50.2865 21.0379 50.5364C21.1211 50.7864 21.1015 51.0591 20.9836 51.2946C20.8656 51.5302 20.6589 51.7092 20.409 51.7923L14.4568 53.7764C14.3555 53.8093 14.2497 53.8257 14.1433 53.825Z" fill="#33EEF4"/>
<path d="M37.1298 56.8009H35.9681C35.705 56.8009 35.4527 56.6964 35.2666 56.5104C35.0806 56.3243 34.9761 56.072 34.9761 55.8089C34.9761 55.5458 35.0806 55.2935 35.2666 55.1074C35.4527 54.9214 35.705 54.8169 35.9681 54.8169H37.1298C37.8895 54.8191 38.6421 54.6706 39.3441 54.3799C40.046 54.0892 40.6833 53.6622 41.219 53.1234C41.4061 52.9427 41.6567 52.8427 41.9168 52.845C42.1769 52.8473 42.4257 52.9516 42.6096 53.1355C42.7936 53.3195 42.8979 53.5683 42.9002 53.8284C42.9024 54.0885 42.8024 54.3391 42.6217 54.5262C41.9023 55.2498 41.0464 55.8235 40.1037 56.214C39.161 56.6044 38.1502 56.8039 37.1298 56.8009Z" fill="#33EEF4"/>
<path d="M8.19105 29.0241C7.92794 29.0241 7.67561 28.9196 7.48957 28.7336C7.30353 28.5475 7.19901 28.2952 7.19901 28.0321V27.8624C7.196 26.8421 7.39551 25.8312 7.78598 24.8885C8.17646 23.9458 8.75013 23.0899 9.47375 22.3705C9.66085 22.1898 9.91144 22.0898 10.1716 22.0921C10.4317 22.0943 10.6805 22.1987 10.8644 22.3826C11.0483 22.5665 11.1527 22.8154 11.1549 23.0755C11.1572 23.3356 11.0572 23.5862 10.8765 23.7733C10.3378 24.309 9.91072 24.9462 9.62004 25.6482C9.32936 26.3501 9.18084 27.1027 9.18309 27.8624V28.0321C9.18309 28.2952 9.07857 28.5475 8.89252 28.7336C8.70648 28.9196 8.45415 29.0241 8.19105 29.0241Z" fill="#33EEF4"/>
<path d="M46.7614 60.7696C46.5358 60.7724 46.316 60.6981 46.1383 60.5592C45.9605 60.4203 45.8355 60.2249 45.7837 60.0053C45.7319 59.7857 45.7565 59.555 45.8535 59.3513C45.9504 59.1476 46.1139 58.983 46.317 58.8847C48.0686 58.0067 49.619 56.7749 50.8703 55.2671C52.1216 53.7594 53.0465 52.0084 53.5866 50.125L53.7424 49.5794C53.8147 49.3264 53.9846 49.1125 54.2147 48.9848C54.4447 48.8571 54.7161 48.826 54.969 48.8984C55.222 48.9707 55.4359 49.1406 55.5636 49.3706C55.6913 49.6007 55.7224 49.872 55.6501 50.125L55.4943 50.6706C54.8794 52.8203 53.8251 54.8189 52.398 56.5401C50.971 58.2614 49.2023 59.6678 47.2039 60.6704C47.066 60.7372 46.9146 60.7711 46.7614 60.7696Z" fill="#188D91"/>
<path d="M4.22276 19.1039C4.04325 19.1037 3.86713 19.0548 3.7132 18.9625C3.55927 18.8701 3.43328 18.7377 3.34867 18.5794C3.26406 18.4211 3.22399 18.2428 3.23275 18.0634C3.2415 17.8841 3.29875 17.7106 3.39838 17.5612C4.7955 15.4683 6.71354 13.7752 8.96372 12.6487L9.73255 12.2638C9.84914 12.2055 9.97607 12.1708 10.1061 12.1616C10.2361 12.1525 10.3666 12.169 10.4902 12.2102C10.6139 12.2515 10.7282 12.3167 10.8266 12.4022C10.925 12.4876 11.0056 12.5916 11.0639 12.7082C11.1221 12.8248 11.1568 12.9517 11.166 13.0817C11.1752 13.2117 11.1586 13.3423 11.1174 13.4659C11.0761 13.5895 11.0109 13.7038 10.9254 13.8022C10.84 13.9006 10.736 13.9813 10.6194 14.0395L9.8506 14.4234C7.90912 15.3954 6.2543 16.8564 5.04913 18.6624C4.95842 18.7984 4.83551 18.9098 4.69134 18.9868C4.54718 19.0639 4.38621 19.1041 4.22276 19.1039Z" fill="#188D91"/>
<path d="M4.22278 12.1594C4.02661 12.1593 3.83485 12.1011 3.67175 11.9921C3.50865 11.8831 3.38153 11.7282 3.30646 11.5469C3.23139 11.3657 3.21175 11.1662 3.25001 10.9738C3.28827 10.7814 3.38272 10.6047 3.52141 10.4659C4.24082 9.74231 5.09668 9.16864 6.0394 8.77817C6.98212 8.3877 7.99296 8.18819 9.01334 8.1912H9.18298C9.44608 8.1912 9.69841 8.29571 9.88445 8.48176C10.0705 8.6678 10.175 8.92013 10.175 9.18323C10.175 9.44634 10.0705 9.69867 9.88445 9.88471C9.69841 10.0708 9.44608 10.1753 9.18298 10.1753H9.01334C8.25361 10.173 7.50098 10.3215 6.79906 10.6122C6.09714 10.9029 5.45986 11.33 4.92416 11.8687C4.73816 12.0547 4.48587 12.1593 4.22278 12.1594Z" fill="#188D91"/>
<path d="M53.7058 60.7692C53.4928 60.7695 53.2853 60.7012 53.1141 60.5744C52.943 60.4476 52.8171 60.2691 52.7553 60.0653C52.6934 59.8615 52.6988 59.6431 52.7707 59.4426C52.8425 59.2421 52.977 59.07 53.1542 58.9518C54.8651 57.813 56.0889 56.0762 56.5857 54.0819L56.7107 53.5859C56.7425 53.4595 56.7988 53.3407 56.8765 53.2361C56.9543 53.1315 57.0518 53.0432 57.1637 52.9764C57.2755 52.9095 57.3994 52.8653 57.5283 52.8463C57.6572 52.8273 57.7886 52.8339 57.915 52.8657C58.0414 52.8975 58.1602 52.9538 58.2648 53.0315C58.3694 53.1093 58.4577 53.2068 58.5245 53.3187C58.5914 53.4305 58.6356 53.5544 58.6546 53.6833C58.6736 53.8122 58.667 53.9436 58.6352 54.07L58.5102 54.566C57.8944 57.0387 56.3769 59.192 54.2554 60.6036C54.0925 60.7117 53.9013 60.7694 53.7058 60.7692Z" fill="#188D91"/>
<path d="M13.1512 10.1754C12.8881 10.1754 12.6358 10.0708 12.4497 9.88479C12.2637 9.69875 12.1592 9.44642 12.1592 9.18332C12.1592 8.92021 12.2637 8.66788 12.4497 8.48184C12.6358 8.2958 12.8881 8.19128 13.1512 8.19128C13.5635 8.19267 13.9678 8.07853 14.3185 7.86181C14.6692 7.64509 14.9522 7.33445 15.1353 6.96512L15.2395 6.7558C15.2977 6.6392 15.3783 6.53521 15.4767 6.44978C15.5752 6.36434 15.6894 6.29913 15.8131 6.25786C15.9367 6.21659 16.0672 6.20007 16.1972 6.20925C16.3273 6.21843 16.4542 6.25313 16.5708 6.31136C16.6874 6.3696 16.7914 6.45023 16.8768 6.54865C16.9622 6.64707 17.0274 6.76135 17.0687 6.88498C17.11 7.0086 17.1265 7.13914 17.1173 7.26915C17.1081 7.39916 17.0734 7.52608 17.0152 7.64268L16.9101 7.852C16.5633 8.55188 16.0273 9.14055 15.3629 9.55122C14.6985 9.96189 13.9323 10.1781 13.1512 10.1754Z" fill="#188D91"/>
<path d="M56.6799 47.8726C56.5108 47.8725 56.3446 47.8292 56.197 47.7468C56.0494 47.6645 55.9253 47.5458 55.8364 47.402C55.7476 47.2582 55.697 47.094 55.6894 46.9252C55.6818 46.7563 55.7174 46.5883 55.793 46.4371C56.1641 45.6903 56.6796 45.0244 57.3096 44.478C57.9397 43.9316 58.6717 43.5155 59.4635 43.2537C59.7135 43.1705 59.9862 43.1901 60.2217 43.308C60.4573 43.426 60.6363 43.6327 60.7194 43.8826C60.8026 44.1326 60.783 44.4053 60.6651 44.6408C60.5471 44.8764 60.3404 45.0554 60.0905 45.1385C59.5462 45.3182 59.043 45.6041 58.61 45.9796C58.177 46.355 57.8227 46.8127 57.5677 47.326C57.4851 47.4905 57.3582 47.6288 57.2014 47.7253C57.0446 47.8219 56.864 47.8729 56.6799 47.8726Z" fill="#188D91"/>
<path d="M58.6649 50.8489C58.4018 50.8489 58.1495 50.7444 57.9634 50.5584C57.7774 50.3723 57.6729 50.12 57.6729 49.8569V48.8648C57.6729 48.6017 57.7774 48.3494 57.9634 48.1634C58.1495 47.9773 58.4018 47.8728 58.6649 47.8728C58.928 47.8728 59.1803 47.9773 59.3664 48.1634C59.5524 48.3494 59.6569 48.6017 59.6569 48.8648V49.8569C59.6569 50.12 59.5524 50.3723 59.3664 50.5584C59.1803 50.7444 58.928 50.8489 58.6649 50.8489Z" fill="#188D91"/>
</g>
<defs>
<clipPath id="clip0_2337_107">
<rect width="64" height="64" fill="white"/>
</clipPath>
</defs>
</svg>
