<svg width="64" height="64" viewBox="0 0 64 64" fill="none" xmlns="http://www.w3.org/2000/svg">
<g clip-path="url(#clip0_2453_89)">
<path d="M24.4186 56.0536C24.2796 56.0536 24.1482 55.9698 24.0952 55.8322C23.1405 53.3611 22.1536 50.8082 20.8991 48.439C19.4874 45.7728 17.9249 43.6927 16.1233 42.0794C14.7329 40.8349 13.1609 39.8494 11.9467 39.1302C11.7814 39.0323 11.7266 38.8186 11.8244 38.6537C11.9222 38.488 12.1364 38.4327 12.3008 38.5314C13.5427 39.2674 15.1518 40.2765 16.5871 41.5613C18.4512 43.2303 20.0631 45.3734 21.5142 48.1139C22.7877 50.5188 23.7818 53.0917 24.7433 55.5794C24.8126 55.7588 24.7238 55.9608 24.5445 56.0301C24.5033 56.0464 24.4607 56.0536 24.4186 56.0536Z" fill="#0B030A"/>
<path d="M26.8538 55.8013C26.6767 55.8013 26.5255 55.6668 26.5082 55.487C26.0137 50.3792 23.8167 45.4969 20.3212 41.7401C20.1903 41.5997 20.198 41.3796 20.3389 41.2487C20.4802 41.1174 20.6998 41.1256 20.8303 41.2664C24.4294 45.1346 26.6917 50.1609 27.2003 55.4199C27.2188 55.6111 27.0789 55.7814 26.8878 55.7995C26.8765 55.8008 26.8651 55.8013 26.8538 55.8013Z" fill="#0B030A"/>
<path d="M29.6437 56.4978C29.6409 56.4978 29.6382 56.4978 29.635 56.4978C29.443 56.4929 29.2913 56.3334 29.2958 56.1414C29.4149 51.2727 28.2555 46.453 25.9421 42.203C25.8506 42.0345 25.9127 41.823 26.0816 41.7311C26.2505 41.6405 26.4616 41.7025 26.5535 41.8706C28.9249 46.2275 30.1138 51.1681 29.9915 56.1586C29.987 56.3475 29.8321 56.4978 29.6437 56.4978Z" fill="#0B030A"/>
<path d="M31.8104 56.7889C31.7991 56.7889 31.7873 56.7885 31.776 56.7871C31.5849 56.7685 31.445 56.5983 31.464 56.4071C31.9436 51.5335 31.6863 46.6359 30.6986 41.8505C30.6596 41.6626 30.7806 41.4787 30.969 41.4397C31.1565 41.4022 31.3408 41.5222 31.3797 41.7101C32.3815 46.5643 32.6429 51.5317 32.156 56.4751C32.1383 56.6549 31.9871 56.7889 31.8104 56.7889Z" fill="#0B030A"/>
<path d="M34.7045 56.8405C34.5305 56.8405 34.3802 56.71 34.3594 56.5329C33.9798 53.2675 35.291 44.1869 35.9862 42.1493C36.0482 41.9677 36.2452 41.8694 36.4277 41.9324C36.6094 41.9944 36.7067 42.1924 36.6447 42.374C35.9821 44.3164 34.6882 53.3359 35.0505 56.4523C35.0727 56.6434 34.9359 56.816 34.7452 56.8382C34.7316 56.8395 34.718 56.8405 34.7045 56.8405Z" fill="#0B030A"/>
<path d="M36.5508 56.7338C36.5391 56.7338 36.5277 56.7333 36.516 56.732C36.3248 56.713 36.1854 56.5427 36.2044 56.3515C36.7406 50.9811 38.4055 45.6468 41.0187 40.9249C41.1111 40.7569 41.3217 40.6957 41.4915 40.789C41.6595 40.8819 41.7202 41.0938 41.6274 41.2619C39.0594 45.9018 37.4236 51.1437 36.8964 56.4204C36.8787 56.5997 36.7275 56.7338 36.5508 56.7338Z" fill="#0B030A"/>
<path d="M25.7646 41.4413C25.6328 41.4413 25.5064 41.3656 25.448 41.2379C24.391 38.9209 22.9901 36.8167 21.2854 34.9843C21.1545 34.8439 21.1622 34.6238 21.3031 34.4929C21.4444 34.3615 21.6641 34.3697 21.7945 34.5105C23.5504 36.3978 24.9929 38.564 26.0812 40.949C26.1609 41.1238 26.0839 41.3303 25.9091 41.41C25.862 41.4313 25.8131 41.4413 25.7646 41.4413Z" fill="#0B030A"/>
<path d="M21.2211 40.5802C21.0983 40.5802 20.9792 40.515 20.9158 40.3999C19.9828 38.7043 18.8519 37.1373 17.5548 35.7423C17.424 35.6019 17.4317 35.3818 17.5725 35.2509C17.7134 35.1196 17.9339 35.1278 18.0639 35.2686C19.4004 36.7052 20.5648 38.3189 21.5254 40.0648C21.6178 40.2328 21.5567 40.4443 21.3882 40.5372C21.3352 40.5662 21.2777 40.5802 21.2211 40.5802Z" fill="#0B030A"/>
<path d="M29.5654 41.4413C29.4132 41.4413 29.2733 41.3407 29.2302 41.1872C28.6682 39.1781 27.886 37.247 26.9064 35.4472C26.8145 35.2787 26.8765 35.0672 27.0454 34.9757C27.2148 34.8837 27.4259 34.9467 27.5169 35.1147C28.5224 36.9603 29.324 38.9404 29.9005 40.9997C29.9522 41.1845 29.8439 41.3765 29.6591 41.4286C29.6279 41.4372 29.5962 41.4413 29.5654 41.4413Z" fill="#0B030A"/>
<path d="M32.8466 41.2738C32.6672 41.2738 32.515 41.1361 32.5006 40.9541C32.3411 38.9876 32.059 37.0161 31.6627 35.0945C31.6237 34.9065 31.7447 34.7226 31.9331 34.6837C32.1215 34.6443 32.3054 34.7661 32.3438 34.9541C32.746 36.9033 33.0323 38.9033 33.1935 40.8979C33.2093 41.0895 33.0667 41.257 32.8751 41.2729C32.8656 41.2733 32.8561 41.2738 32.8466 41.2738Z" fill="#0B030A"/>
<path d="M36.2787 41.0641C36.2624 41.0641 36.2461 41.0632 36.2294 41.0605C36.0392 41.0338 35.9069 40.8576 35.9341 40.6674C36.2778 38.243 36.6673 36.2222 36.9499 35.3934C37.012 35.2118 37.2085 35.1131 37.3915 35.1765C37.5731 35.2385 37.6705 35.436 37.6084 35.618C37.343 36.3966 36.9558 38.417 36.6225 40.7652C36.598 40.9387 36.449 41.0641 36.2787 41.0641Z" fill="#0B030A"/>
<path d="M39.4598 41.064C39.4227 41.064 39.3846 41.0582 39.3471 41.0455C39.1654 40.983 39.0685 40.7855 39.1306 40.6034C39.8923 38.377 40.8516 36.2121 41.9825 34.1691C42.0753 34.0015 42.2859 33.939 42.4553 34.0332C42.6233 34.1261 42.684 34.338 42.5912 34.5061C41.4802 36.5133 40.5373 38.6406 39.7891 40.829C39.7397 40.9735 39.6043 41.064 39.4598 41.064Z" fill="#0B030A"/>
<path d="M39.5169 55.4173C39.491 55.4173 39.4652 55.4146 39.439 55.4087C39.2519 55.3656 39.1346 55.1795 39.1772 54.992C39.9584 51.569 40.7664 48.0296 42.2868 44.7728C43.1631 42.896 44.2687 41.1292 45.5717 39.5219C45.693 39.3729 45.9118 39.3507 46.0612 39.4707C46.2102 39.5921 46.2333 39.8108 46.1124 39.9603C44.8443 41.5233 43.7696 43.2416 42.9172 45.0672C41.4281 48.257 40.6287 51.7597 39.8556 55.1469C39.8185 55.3081 39.6754 55.4173 39.5169 55.4173Z" fill="#0B030A"/>
<path d="M43.1437 40.3071C43.0898 40.3071 43.0345 40.2944 42.9834 40.2677C42.8131 40.1789 42.7469 39.9688 42.8357 39.7985C43.6201 38.2935 44.5599 36.8623 45.6287 35.5449C45.7487 35.3954 45.9684 35.3732 46.1179 35.4941C46.2669 35.6151 46.29 35.8338 46.1686 35.9833C45.1296 37.2645 44.2157 38.6563 43.4526 40.12C43.3905 40.2391 43.2691 40.3071 43.1437 40.3071Z" fill="#0B030A"/>
<path d="M42.3819 54.5263C42.3489 54.5263 42.3153 54.5217 42.2818 54.5118C42.0979 54.4561 41.9933 54.2622 42.0486 54.0783C43.5807 48.9787 45.3172 43.1993 49.0341 38.8007C49.1577 38.654 49.3778 38.6359 49.5246 38.7595C49.6713 38.8836 49.6894 39.1032 49.5658 39.25C45.9417 43.5376 44.2275 49.2441 42.7152 54.2785C42.67 54.4289 42.5318 54.5263 42.3819 54.5263Z" fill="#0B030A"/>
<path d="M51.9853 34.1414C48.9183 32.2856 41.1043 31.1526 31.9426 31.4456C24.8026 31.68 18.4733 32.7251 14.5859 34.161C12.0367 35.0986 10.5325 36.2024 10.5325 37.3354C10.5325 40.1973 20.1338 42.9223 31.9523 42.5414C43.7807 42.1508 53.3723 38.8102 53.3723 35.9484C53.3723 35.3038 52.884 34.6982 51.9853 34.1414ZM31.9133 39.9237C22.9859 40.2168 15.7483 38.6931 15.7483 36.5344C15.7483 34.366 22.9859 32.3735 31.9133 32.0805C40.8407 31.7972 48.0783 33.3113 48.0783 35.4796C48.0783 37.6479 40.8407 39.6307 31.9133 39.9237Z" fill="#FF78A0"/>
<path d="M48.0783 35.3635C48.0783 35.7445 47.8537 36.1157 47.4435 36.477C44.7868 35.2854 39.3072 34.5822 32.9877 34.7874C25.6426 35.0217 19.4306 36.4184 17.4673 38.1179C16.3636 37.6296 15.7483 37.0533 15.7483 36.4184C15.7483 34.25 22.9859 32.2575 31.9133 31.9645C40.8407 31.6812 48.0783 33.1952 48.0783 35.3635Z" fill="#0B030A"/>
<path d="M46.1347 25.2627C45.9881 25.8779 45.8123 26.4836 45.6072 27.0793C45.4314 27.5873 45.2361 28.0853 45.0212 28.5738C44.4839 29.7752 43.8197 30.8984 42.9896 31.9045C40.3816 35.0496 36.3282 36.7394 32.3137 36.8566C28.1724 36.9737 23.9627 35.4793 20.964 32.5491C17.9558 29.6287 16.2659 25.2627 16.725 21.0431C17.1254 17.3608 19.8897 8.57017 30.3505 7.30037C31.2198 7.19297 32.0403 7.14407 32.8119 7.16366C34.4626 7.17339 35.9082 7.43709 37.1779 7.88639H37.1878C39.6296 8.71663 41.4756 10.2208 43.0774 11.979C46.4374 15.6515 47.3263 20.3692 46.1347 25.2627Z" fill="#FFA90A"/>
<g opacity="0.3">
<path d="M46.1347 25.2628C45.9881 25.878 45.8123 26.4837 45.6072 27.0794C45.0798 27.3041 44.523 27.4701 43.9663 27.5971C41.5342 28.1246 38.9947 27.8022 36.5919 27.1575C35.1268 26.7571 33.6519 26.2101 32.5385 25.1846C31.5031 24.2273 30.8584 22.9088 30.4872 21.551C29.5789 18.2791 30.2334 14.6065 32.2161 11.8422C32.9975 10.7483 33.984 9.81065 35.0975 9.05859C35.6835 8.65818 36.4063 8.2381 37.1779 7.88647H37.1878C39.6296 8.71671 41.4756 10.2209 43.0774 11.979C46.4374 15.6516 47.3263 20.3693 46.1347 25.2628Z" fill="white"/>
</g>
<path d="M45.0212 28.5738C44.4839 29.7752 43.8197 30.8984 42.9896 31.9045C40.3816 35.0496 36.3282 36.7394 32.3137 36.8566C28.1724 36.9737 23.9627 35.4793 20.964 32.5491C17.9558 29.6287 16.2659 25.2627 16.725 21.0431C17.1254 17.3608 19.8897 8.57017 30.3505 7.30037C31.2198 7.19297 32.0403 7.14407 32.8119 7.16366C32.3137 7.47613 31.8351 7.77898 31.4738 8.09156C28.5826 10.5724 26.4631 13.9618 25.5841 17.6831C25.0957 19.7538 24.998 21.9808 25.7794 23.9538C26.9124 26.7961 29.7254 28.6715 32.6556 29.57C36.6994 30.8105 41.1826 30.371 45.0212 28.5738Z" fill="#FF8506"/>
<path d="M44.0638 13.1805C42.5107 15.4466 40.1764 17.0777 37.6076 17.5758C37.0215 17.6833 36.4355 17.7419 35.8494 17.7419C32.9681 17.7419 30.0769 16.4331 28.0062 14.0987C26.6876 12.6141 25.7206 10.7583 25.203 8.74613C25.496 8.60943 25.7988 8.47271 26.1113 8.35547C26.5704 10.2699 27.4886 12.0475 28.7388 13.454C31.0048 15.9935 34.3258 17.2145 37.422 16.6187C39.8443 16.1498 42.0322 14.5577 43.4192 12.3698C43.6536 12.6335 43.8586 12.9071 44.0638 13.1805Z" fill="#0B030A"/>
<path d="M42.7356 32.1977C42.4914 32.4809 42.2277 32.7544 41.9444 33.0181C41.0556 29.3749 38.1839 26.2298 34.6677 25.2433C31.7277 24.4325 28.944 25.1066 27.1272 25.8293C24.2654 26.9428 21.7552 28.9353 19.958 31.4651C19.7431 31.2014 19.538 30.9377 19.3329 30.6544C21.2473 28.0855 23.826 26.0735 26.7756 24.921C28.7291 24.1494 31.7375 23.4168 34.9314 24.3055C38.5844 25.3311 41.6026 28.4665 42.7356 32.1977Z" fill="#0B030A"/>
<path d="M46.2713 24.5887C46.242 24.8134 46.1931 25.0379 46.1346 25.2627C46.1052 25.3896 46.0661 25.5264 46.0271 25.6534C44.562 24.3738 42.8722 23.2799 41.0164 22.4105C38.428 21.1896 35.488 20.3789 32.0499 19.9199C26.9415 19.2361 21.804 19.4705 16.7737 20.6036C16.8226 20.2813 16.8909 19.9296 16.9691 19.5584C21.9797 18.4841 27.0881 18.2692 32.1769 18.9529C35.7225 19.4217 38.7503 20.2617 41.4364 21.5217C43.2043 22.352 44.8354 23.3873 46.2713 24.5887Z" fill="#0B030A"/>
<path d="M53.3723 35.9481C53.3723 38.81 43.7807 42.1505 31.9523 42.5411C20.1338 42.922 10.5325 40.197 10.5325 37.3351C10.5325 36.2021 12.0367 35.0983 14.5859 34.1607L14.5663 34.3658C13.6873 35.7235 14.2148 37.6379 15.3575 38.7709C16.5003 39.9137 18.1022 40.4509 19.665 40.8611C28.1529 43.0881 37.3342 42.6193 45.5584 39.523C47.4337 38.8197 49.3384 37.9211 50.5397 36.3192C51.0476 35.6453 51.4676 34.8249 51.9853 34.1411C52.884 34.6979 53.3723 35.3035 53.3723 35.9481Z" fill="#FE3778"/>
<path d="M30.2691 47.4701C26.5545 47.4701 22.8416 46.8587 19.3303 45.6173C19.1491 45.5534 19.0545 45.3546 19.1183 45.1734C19.1822 44.9923 19.3815 44.899 19.5622 44.9615C28.3325 48.0616 38.3905 47.1481 46.4675 42.5194C46.6355 42.4221 46.8461 42.4823 46.9421 42.6481C47.0377 42.8147 46.9802 43.0271 46.8135 43.1227C41.7968 45.9982 36.0314 47.4701 30.2691 47.4701Z" fill="#0B030A"/>
<path d="M30.4747 52.5668C27.8112 52.5668 25.1631 52.2045 22.5386 51.4775C22.3533 51.4264 22.2451 51.2348 22.2963 51.0496C22.347 50.8648 22.5345 50.7547 22.7242 50.8073C29.6468 52.723 36.7519 52.0468 43.8415 48.7946C44.015 48.7144 44.222 48.7905 44.3026 48.9658C44.3828 49.1401 44.3062 49.3467 44.1314 49.4268C39.5712 51.5188 35.0019 52.5668 30.4747 52.5668Z" fill="#0B030A"/>
<path d="M56.5121 25.736L55.6518 26.3371L54.8089 26.9291L50.6379 29.8438C50.2915 30.0864 50.5642 30.6175 50.9588 30.4777L54.0368 29.4C54.3482 29.2925 54.6703 29.5247 54.67 29.8536L54.67 32.1929C54.6675 32.5284 55.0118 32.7602 55.3228 32.6308L59.5804 30.9128L61.4531 30.1601C61.5189 30.1368 61.5667 30.1005 61.6034 30.0535C61.7803 29.8383 61.6449 29.4525 61.3032 29.47L58.3196 29.5904C58.0836 29.5971 57.8729 29.4289 57.8289 29.1958L57.2506 26.0399C57.191 25.6923 56.7951 25.532 56.5121 25.736Z" fill="#FFA90A"/>
<path d="M54.8089 26.9292L50.6379 29.8439C50.2915 30.0865 50.5642 30.6176 50.9588 30.4778L54.0368 29.4001C54.3482 29.2927 54.6703 29.5248 54.67 29.8537L54.67 32.193C54.6675 32.5285 55.0118 32.7603 55.3228 32.6309L59.5804 30.9129C59.1767 30.9183 58.77 30.8863 58.3758 30.8143C57.2907 30.614 56.2455 30.0755 55.5561 29.2168C55.0475 28.5754 54.7669 27.7421 54.8089 26.9292Z" fill="#FF8506"/>
<g opacity="0.2">
<path d="M56.5122 25.736L55.6518 26.3371C55.6214 26.5982 55.6285 26.8562 55.6643 27.1159C55.7963 28.0271 56.3046 28.8804 57.0388 29.4314C57.4934 29.7781 58.0253 30.0175 58.5798 30.1615C59.5667 30.4187 60.6339 30.372 61.6034 30.0535C61.7803 29.8383 61.6449 29.4525 61.3032 29.47L58.3196 29.5904C58.0836 29.5971 57.8729 29.4289 57.8289 29.1958L57.2506 26.0399C57.191 25.6923 56.7952 25.532 56.5122 25.736Z" fill="white"/>
</g>
<path d="M49.4314 22.0618L49.4256 22.8687L49.4218 23.6608L49.3939 27.5735C49.392 27.8987 49.8464 27.964 49.9342 27.6543L50.6278 25.2443C50.6991 25.0012 50.988 24.9026 51.1941 25.0491L52.6612 26.0899C52.8705 26.2407 53.1691 26.1279 53.2262 25.8754L54.0431 22.4407L54.4043 20.9314C54.4189 20.8798 54.4176 20.8336 54.4044 20.7898C54.3481 20.583 54.0459 20.4962 53.9048 20.7183L52.6528 22.6431C52.552 22.7941 52.3529 22.8514 52.187 22.7753L49.9505 21.7338C49.706 21.6166 49.4294 21.7935 49.4314 22.0618Z" fill="#FFA90A"/>
<path d="M49.4218 23.661L49.3939 27.5737C49.392 27.8989 49.8464 27.9642 49.9342 27.6545L50.6278 25.2445C50.6991 25.0015 50.988 24.9028 51.1941 25.0493L52.6612 26.0901C52.8705 26.2409 53.1691 26.1282 53.2262 25.8756L54.0431 22.4409C53.8669 22.6965 53.6659 22.9374 53.4453 23.1525C52.8369 23.744 52.0342 24.1599 51.1889 24.2102C50.5604 24.2439 49.9129 24.049 49.4218 23.661Z" fill="#FF8506"/>
<g opacity="0.2">
<path d="M49.4313 22.0618L49.4254 22.8687C49.5756 23.004 49.7406 23.1144 49.9194 23.2075C50.5496 23.5301 51.3108 23.5909 51.9832 23.3756C52.4028 23.2449 52.7896 23.0177 53.1267 22.734C53.727 22.2295 54.1726 21.5394 54.4042 20.7898C54.3479 20.583 54.0457 20.4962 53.9047 20.7183L52.6527 22.6431C52.5519 22.7941 52.3527 22.8514 52.1869 22.7753L49.9503 21.7338C49.7058 21.6166 49.4292 21.7935 49.4313 22.0618Z" fill="white"/>
</g>
<path d="M7.76161 26.5813L8.66744 27.2143L9.555 27.8375L13.9469 30.9066C14.3115 31.1621 14.0244 31.7214 13.609 31.5741L10.3679 30.4392C10.04 30.3262 9.70081 30.5707 9.70127 30.9169L9.70118 33.3801C9.70377 33.7334 9.34129 33.9774 9.01387 33.8412L4.53081 32.0322L2.55896 31.2396C2.48978 31.2151 2.43931 31.177 2.40073 31.1274C2.21448 30.9009 2.35695 30.4945 2.71674 30.513L5.85839 30.6398C6.10688 30.6468 6.32866 30.4698 6.37512 30.2243L6.98405 26.9013C7.04676 26.5352 7.46359 26.3666 7.76161 26.5813Z" fill="#FFA90A"/>
<path d="M9.55495 27.8376L13.9468 30.9068C14.3114 31.1622 14.0244 31.7215 13.6089 31.5742L10.3678 30.4394C10.04 30.3263 9.70076 30.5708 9.70122 30.9171L9.70113 33.3802C9.70372 33.7335 9.34124 33.9776 9.01382 33.8413L4.53076 32.0323C4.95585 32.038 5.3841 32.0043 5.79907 31.9285C6.94171 31.7177 8.04232 31.1506 8.76812 30.2465C9.30368 29.5711 9.5991 28.6937 9.55495 27.8376Z" fill="#FF8506"/>
<g opacity="0.2">
<path d="M7.76161 26.5813L8.66744 27.2143C8.69944 27.4891 8.69202 27.7608 8.65427 28.0343C8.51532 28.9937 7.98013 29.8922 7.20703 30.4725C6.72833 30.8374 6.16819 31.0895 5.5844 31.2411C4.54528 31.5118 3.42148 31.4628 2.40073 31.1274C2.21448 30.9009 2.35695 30.4945 2.71674 30.513L5.85839 30.6398C6.10688 30.6468 6.32866 30.4698 6.37513 30.2243L6.98405 26.9013C7.04676 26.5352 7.46359 26.3666 7.76161 26.5813Z" fill="white"/>
</g>
<path d="M15.2172 22.7127L15.2233 23.5625L15.2274 24.3964L15.2567 28.5163C15.2586 28.8587 14.7802 28.9274 14.6878 28.6014L13.9574 26.0638C13.8825 25.8079 13.5781 25.7039 13.3612 25.8583L11.8164 26.9541C11.596 27.1129 11.2817 26.9942 11.2215 26.7282L10.3613 23.1118L9.98097 21.5225C9.96557 21.4682 9.96706 21.4196 9.98097 21.3733C10.0401 21.1557 10.3584 21.0644 10.5069 21.2982L11.8252 23.3249C11.9314 23.4839 12.1411 23.5442 12.3157 23.4641L14.6707 22.3675C14.9281 22.2439 15.2193 22.4303 15.2172 22.7127Z" fill="#FFA90A"/>
<g opacity="0.3">
<path d="M15.2275 24.3963L15.2568 28.5163C15.2587 28.8586 14.7803 28.9274 14.6878 28.6013L13.9575 26.0638C13.8825 25.8079 13.5782 25.7039 13.3613 25.8583L11.8164 26.954C11.5961 27.1129 11.2817 26.9942 11.2215 26.7282L10.3613 23.1118C10.5469 23.3809 10.7586 23.6345 10.9908 23.861C11.6314 24.4838 12.4767 24.9217 13.3666 24.9747C14.0285 25.0101 14.7103 24.8049 15.2275 24.3963Z" fill="white"/>
</g>
<g opacity="0.2">
<path d="M15.2172 22.7127L15.2233 23.5625C15.0653 23.7048 14.8915 23.821 14.7032 23.9191C14.0397 24.2588 13.2381 24.3229 12.5302 24.0962C12.0883 23.9585 11.681 23.7193 11.3262 23.4206C10.694 22.8894 10.2248 22.1628 9.98096 21.3734C10.0401 21.1557 10.3584 21.0644 10.5069 21.2982L11.8252 23.3249C11.9314 23.4839 12.1411 23.5442 12.3157 23.4641L14.6707 22.3675C14.9281 22.2439 15.2193 22.4303 15.2172 22.7127Z" fill="white"/>
</g>
</g>
<defs>
<clipPath id="clip0_2453_89">
<rect width="64" height="64" fill="white"/>
</clipPath>
</defs>
</svg>
